#N canvas 152 138 1007 573 10;
#X obj 109 488 hip~ 5;
#X text 89 6 VARIABLE DELAYS;
#X obj 131 145 vd~ G03-del;
#X obj 309 447 delwrite~ G03-del 1000;
#X text 387 481 updated for Pd version 0.37-1;
#X obj 108 520 dac~;
#X obj 323 191 adc~;
#X floatatom 152 97 5 0 0 0 - - -, f 5;
#X obj 255 81 loadbang;
#X msg 255 103 500;
#X obj 364 339 lop~ 1000;
#X obj 428 46 r knob1;
#X obj 428 68 * 700;
#X obj 428 90 sig~;
#X obj 428 112 lop~ 5;
#X obj 505 214 osc~ 440;
#X obj 190 205 *~ 0.9;
#X connect 0 0 5 0;
#X connect 0 0 5 1;
#X connect 2 0 0 0;
#X connect 2 0 16 0;
#X connect 6 0 10 0;
#X connect 6 1 10 0;
#X connect 7 0 2 0;
#X connect 8 0 9 0;
#X connect 9 0 2 0;
#X connect 10 0 0 0;
#X connect 10 0 3 0;
#X connect 11 0 12 0;
#X connect 12 0 13 0;
#X connect 13 0 14 0;
#X connect 14 0 2 0;
#X connect 16 0 3 0;
